<?xml version="1.0" encoding="utf-8"?>
<!-- Generator: Adobe Illustrator 27.5.0, SVG Export Plug-In . SVG Version: 6.00 Build 0)  -->
<svg version="1.1" xmlns="http://www.w3.org/2000/svg" xmlns:xlink="http://www.w3.org/1999/xlink" x="0px" y="0px"
	 viewBox="0 0 252.09 60" style="enable-background:new 0 0 252.09 60;" xml:space="preserve">
<style type="text/css">
	.st0{fill:#E0D8CE;}
	.st1{opacity:0.8;fill:#E0D8CE;}
	.st2{fill:none;stroke:#415649;stroke-width:0.25;stroke-miterlimit:10;}
	.st3{fill:none;stroke:#4C4C4B;stroke-width:0.25;stroke-miterlimit:10;}
	.st4{fill:#4A423F;}
	.st5{fill:#6F6967;}
	.st6{fill:#655F5D;}
	.st7{fill:url(#SVGID_1_);}
	.st8{fill:url(#SVGID_00000131364259558898176890000013920144684512891305_);}
	.st9{fill:url(#SVGID_00000090296150897440767930000017628126407296409517_);}
	.st10{fill:none;stroke:#ECE1D6;stroke-width:3;stroke-miterlimit:10;}
	.st11{fill:#ECE1D6;}
	.st12{fill:url(#SVGID_00000028284760040127116130000003275001827317799327_);}
	.st13{fill:url(#SVGID_00000141418097874418606400000018339607872698150837_);}
	.st14{fill:none;stroke:#ECE1D6;stroke-width:2.5;stroke-miterlimit:10;}
	.st15{opacity:0.7;fill:#ECE1D6;}
	
		.st16{opacity:0.5;clip-path:url(#SVGID_00000078004177017733499750000004188951623663084989_);fill:url(#SVGID_00000003813283234953115980000001853570975498726309_);}
	
		.st17{clip-path:url(#SVGID_00000110461472606491520950000018266671245159004058_);fill:url(#SVGID_00000010997749528813028900000017700649469862688688_);}
	
		.st18{clip-path:url(#SVGID_00000134944203374686411080000008703028965341221263_);fill:url(#SVGID_00000057133962666184062440000010509565262754355616_);}
	
		.st19{opacity:0.5;clip-path:url(#SVGID_00000003790169417885026020000018074915966215806613_);fill:url(#SVGID_00000116237054799009153150000012684899599563831711_);}
	
		.st20{opacity:0.5;clip-path:url(#SVGID_00000081629662282028810300000015608672631965817998_);fill:url(#SVGID_00000074426583372060349360000010865659004997247662_);}
	.st21{clip-path:url(#SVGID_00000155859285846920879370000006978753275842795659_);fill:#ECE1D6;}
	.st22{fill:#DFD7CE;}
	.st23{fill:url(#SVGID_00000025419315486179825940000007695142720384161939_);}
	.st24{fill:url(#SVGID_00000183946089962980166560000001252801619364539265_);}
	.st25{fill:url(#SVGID_00000039833809771781617060000014964687350453895328_);}
	.st26{fill:#4C4C4B;}
	.st27{fill:url(#SVGID_00000155143781082882104140000000439294360873082257_);}
	.st28{fill:url(#SVGID_00000025436458416779981280000015340652383161213086_);}
	
		.st29{opacity:0.5;clip-path:url(#SVGID_00000006694866337202644880000002644710910560808882_);fill:url(#SVGID_00000168837212466490875030000007904674282150496677_);}
	
		.st30{clip-path:url(#SVGID_00000093887000305108036060000014592221192134508721_);fill:url(#SVGID_00000037684739437506972310000018159660089809945237_);}
	
		.st31{clip-path:url(#SVGID_00000006666746597120511490000003952510921727806120_);fill:url(#SVGID_00000049907667491566980950000016027119134176935821_);}
	
		.st32{opacity:0.5;clip-path:url(#SVGID_00000075140748767877400780000011872410293621510580_);fill:url(#SVGID_00000103231662657061505040000013139477289507317180_);}
	
		.st33{opacity:0.5;clip-path:url(#SVGID_00000007414373584486449980000004213163796775276984_);fill:url(#SVGID_00000058555943482129795230000011306380279792595631_);}
	.st34{clip-path:url(#SVGID_00000049914366338174575010000017715898810353534621_);fill:#4C4C4B;}
	.st35{fill:none;stroke:#2096D5;stroke-miterlimit:10;}
	.st36{fill-rule:evenodd;clip-rule:evenodd;fill:#E0D8CE;}
	.st37{fill:none;stroke:#00A0E9;stroke-width:10;stroke-miterlimit:10;}
	.st38{fill:none;stroke:#E0D8CE;stroke-miterlimit:10;}
	.st39{opacity:0.7;fill:#E0D7CE;}
	.st40{fill:#E0D7CE;}
	.st41{clip-path:url(#SVGID_00000088834491259564464450000001574799794007157129_);}
	.st42{clip-path:url(#SVGID_00000097482663580408427990000009492515850064658833_);}
	.st43{clip-path:url(#SVGID_00000088813937665449190310000013800725615273292477_);}
	.st44{clip-path:url(#SVGID_00000135675081342994724050000013240565334979198612_);}
	.st45{clip-path:url(#SVGID_00000047041373222052981910000001752119807448212354_);}
	.st46{clip-path:url(#SVGID_00000035494352379245201910000008389779670159092876_);}
	.st47{fill:#F1EBE3;}
	.st48{clip-path:url(#SVGID_00000072983206906807038730000007159968433392890246_);}
	.st49{fill-rule:evenodd;clip-rule:evenodd;fill:#E0D7CE;}
	.st50{display:none;}
	.st51{display:inline;fill:none;stroke:#00A0E9;stroke-width:10;stroke-miterlimit:10;}
	.st52{display:inline;fill:none;stroke:#E0D8CE;stroke-miterlimit:10;}
</style>
<g id="레이어_2">
</g>
<g id="레이어_1">
	<g>
		<path class="st0" d="M25.42,35.44c-0.02-0.03-0.04-0.05-0.08-0.05c-0.04,0-0.07,0.02-0.09,0.05c0,0,0,0,0,0.01
			c-0.77,1.36-1.85,2.53-3.13,3.42c-1.67,1.16-3.7,1.84-5.88,1.84c-5.71,0-10.35-4.63-10.35-10.35c0-5.71,4.63-10.35,10.35-10.35
			c1.51,0,2.94,0.32,4.23,0.9c1.44,0.65,2.71,1.62,3.71,2.81c0.02,0.03,0.05,0.07,0.08,0.1c0.14,0.14,0.34,0.23,0.56,0.23
			c0.29,0,0.54-0.15,0.68-0.38l0.06-0.11l1.83-3.62l0.17-0.33l0.01-0.02c0.19-0.35,0.29-0.75,0.29-1.18c0-0.14-0.01-0.27-0.04-0.41
			c0-0.01,0-0.02,0-0.03c-0.02-0.09-0.1-0.16-0.2-0.16c-0.05,0-0.09,0.02-0.13,0.04c-0.01,0.01-0.01,0.01-0.02,0.02
			c-0.31,0.27-0.71,0.44-1.15,0.44c-0.21,0-0.46-0.06-0.6-0.11c-0.44-0.16-1.43-0.82-1.86-1.07c-0.16-0.09-0.32-0.18-0.49-0.27
			c-2.13-1.13-4.55-1.77-7.13-1.77c-8.42,0-15.25,6.83-15.25,15.25c0,8.43,6.83,15.25,15.25,15.25c3.45,0,6.62-1.14,9.18-3.07
			c0.89-0.67,1.7-1.44,2.43-2.28l-2.42-4.8L25.42,35.44z"/>
		<path class="st0" d="M52.96,40.72c-5.47,0-9.9-4.43-9.9-9.9s4.43-9.9,9.9-9.9c5.47,0,9.9,4.43,9.9,9.9S58.42,40.72,52.96,40.72
			 M56.44,16.43v-1.04c0-0.73-0.59-1.32-1.32-1.32H51.4h-0.44c-0.65,0-1.24,0.25-1.68,0.66c-0.01,0.01-0.02,0.01-0.02,0.02
			c-0.03,0.04-0.05,0.08-0.05,0.14c0,0.09,0.06,0.17,0.14,0.19c0.01,0,0.02,0,0.02,0.01c0.4,0.09,0.74,0.32,0.99,0.64
			c0.02,0.03,0.04,0.05,0.06,0.08c0.01,0.01,0.02,0.03,0.02,0.05c0.01,0.03,0.02,0.07,0.02,0.11c0,0.16-0.11,0.3-0.26,0.33
			c0,0-0.01,0-0.01,0c-0.4,0.08-0.8,0.17-1.19,0.28c-6.25,1.73-10.83,7.46-10.83,14.26c0,8.17,6.63,14.8,14.8,14.8
			c8.17,0,14.8-6.63,14.8-14.8C67.75,23.84,62.93,18,56.44,16.43"/>
		<g>
			<path class="st0" d="M207.1,30.68l-2.97-3.75l-8.04-10.15l-0.13-0.17c-0.32-0.36-0.78-0.59-1.3-0.59h-3.32h-0.3
				c-0.49,0-0.95,0.14-1.33,0.39c-0.02,0.02-0.05,0.03-0.07,0.05c-0.04,0.02-0.07,0.05-0.11,0.08c-0.03,0.02-0.06,0.05-0.09,0.07
				c-0.03,0.02-0.05,0.05-0.08,0.07c-0.03,0.03-0.04,0.08-0.04,0.12c0,0.1,0.07,0.18,0.16,0.2c0.01,0,0.01,0,0.01,0
				c0.01,0,0.02,0,0.03,0h0.01c0.49,0.01,0.92,0.22,1.23,0.55c0.07,0.07,0.13,0.15,0.18,0.23l1.88,2.38l0.05,0.06l8.27,10.44
				l2.97,3.75l8.83,11.14l0.01,0.02c0.01,0.01,0.03,0.02,0.06,0.02h5.9L207.1,30.68z"/>
			<path class="st0" d="M201.16,30.68l2.97-3.75l8.03-10.15l0.13-0.17c0.32-0.36,0.78-0.59,1.3-0.59h3.32h0.3
				c0.49,0,0.95,0.14,1.33,0.39c0.02,0.02,0.05,0.03,0.07,0.05c0.04,0.02,0.07,0.05,0.11,0.08c0.03,0.02,0.06,0.05,0.09,0.07
				c0.03,0.02,0.05,0.05,0.08,0.07c0.03,0.03,0.04,0.08,0.04,0.12c0,0.1-0.07,0.18-0.16,0.2c-0.01,0-0.01,0-0.01,0
				c-0.01,0-0.02,0-0.03,0h-0.01c-0.49,0.01-0.93,0.22-1.23,0.55c-0.07,0.07-0.13,0.15-0.18,0.23l-1.88,2.38l-0.05,0.06l-8.27,10.44
				l-2.97,3.75l-8.83,11.14l-0.01,0.02c-0.01,0.01-0.03,0.02-0.06,0.02h-5.9L201.16,30.68z"/>
		</g>
		<path class="st0" d="M247.54,29.09c-0.01,2.78-1.24,5.27-3.17,6.98c0,0-0.01,0.01-0.01,0.01c-0.12,0.1-0.25,0.21-0.37,0.31
			c-0.04,0.03-0.07,0.06-0.11,0.08c-0.09,0.07-0.18,0.14-0.28,0.21c-0.06,0.04-0.12,0.08-0.17,0.12c-0.08,0.05-0.15,0.1-0.23,0.15
			c-0.14,0.09-0.27,0.17-0.41,0.25c-0.01,0-0.02,0.01-0.03,0.02c-0.1,0.06-0.2,0.11-0.3,0.16c-0.02,0.01-0.04,0.02-0.07,0.03
			c-0.1,0.05-0.19,0.1-0.29,0.14c-0.03,0.01-0.05,0.02-0.08,0.04c-0.1,0.04-0.19,0.09-0.29,0.13c-0.02,0.01-0.05,0.02-0.07,0.03
			c-0.29,0.12-0.59,0.22-0.89,0.31c-0.06,0.02-0.13,0.04-0.19,0.05c-0.06,0.02-0.13,0.03-0.19,0.05c-0.08,0.02-0.16,0.04-0.24,0.05
			c-0.06,0.01-0.11,0.02-0.17,0.03c-0.09,0.02-0.19,0.03-0.28,0.05c-0.05,0.01-0.1,0.02-0.14,0.02c-0.11,0.02-0.23,0.03-0.34,0.04
			c-0.03,0-0.06,0.01-0.09,0.01c-0.15,0.01-0.31,0.03-0.46,0.03c-0.05,0-0.1,0-0.16,0l-0.16,0h-0.05c-0.04,0-0.07,0-0.11,0
			c-0.02,0-0.04,0-0.06,0c-0.13,0-0.27,0-0.41-0.01h-0.02c-0.05,0-0.1-0.01-0.15-0.01c-0.07,0-0.14-0.01-0.2-0.02
			c-0.04,0-0.08,0-0.11-0.01c-0.02,0-0.03,0-0.05,0l-0.03,0l-0.02,0c-0.11-0.01-0.23-0.03-0.34-0.04c-0.01,0-0.02,0-0.03,0h0
			c-0.03,0-0.05-0.01-0.08-0.01c0,0-0.01,0-0.02,0l-0.11-0.02c-0.03,0-0.05-0.01-0.08-0.01c-0.06-0.01-0.12-0.02-0.17-0.03
			c-0.03-0.01-0.07-0.01-0.1-0.02c-0.01,0-0.03-0.01-0.04-0.01l-0.15-0.03c-0.05-0.01-0.11-0.02-0.16-0.04c0,0,0,0-0.01,0
			c-0.06-0.02-0.13-0.04-0.19-0.06h0c-0.07-0.02-0.14-0.04-0.22-0.06c-0.01,0-0.01,0-0.02-0.01c-0.12-0.04-0.23-0.08-0.35-0.12
			l-0.01,0c-0.01,0-0.03-0.01-0.04-0.01c-0.01,0-0.02-0.01-0.03-0.01c-0.02-0.01-0.04-0.01-0.06-0.02
			c-0.09-0.04-0.19-0.07-0.28-0.11l-0.08-0.03l0,0l0,0c-0.12-0.05-0.23-0.1-0.34-0.15c-0.01,0-0.01-0.01-0.02-0.01l-0.11-0.05
			c0,0-0.01-0.01-0.01-0.01c-0.09-0.04-0.17-0.08-0.25-0.13c-0.01-0.01-0.03-0.02-0.04-0.02l-0.04-0.02l-0.17-0.09
			c-0.06-0.03-0.12-0.07-0.18-0.1c-0.01,0-0.01,0-0.02-0.01l-0.04-0.02c-0.03-0.02-0.07-0.04-0.1-0.07c0,0,0,0,0,0c0,0,0,0,0,0
			l-0.09-0.06c0,0,0,0-0.01,0c-0.05-0.03-0.1-0.06-0.15-0.1c0,0-0.01,0-0.01-0.01c-0.05-0.04-0.11-0.07-0.16-0.11l-0.1-0.07
			c-0.02-0.01-0.03-0.02-0.05-0.03c-0.01-0.01-0.02-0.01-0.03-0.02l-0.01-0.01c-0.03-0.02-0.05-0.04-0.08-0.06
			c-0.06-0.04-0.11-0.09-0.17-0.13l-0.07-0.06l-0.04-0.03c-0.01-0.01-0.01-0.01-0.02-0.02c-0.08-0.07-0.17-0.14-0.25-0.21
			l-0.01-0.01c-1.94-1.71-3.17-4.2-3.18-6.99l0,0v-0.04c0-0.01,0-0.02,0-0.03c0.01,0.01,0.01,0.02,0.02,0.02
			c0.01,0.01,0.02,0.02,0.02,0.03c0.05,0.07,0.1,0.13,0.15,0.19c0.06,0.07,0.11,0.15,0.17,0.22c0.28,0.34,0.57,0.66,0.87,0.95
			c0.01,0.01,0.03,0.03,0.04,0.04l0.02,0.01c0.05,0.05,0.1,0.09,0.15,0.14c0.07,0.06,0.13,0.12,0.2,0.18
			c2.14,1.9,4.87,2.94,7.73,2.94c2.86,0,5.58-1.04,7.73-2.93c0.07-0.06,0.13-0.12,0.2-0.18c0.05-0.05,0.1-0.09,0.16-0.14
			c0.01-0.01,0.03-0.03,0.04-0.04c0.3-0.29,0.6-0.61,0.87-0.95c0.06-0.07,0.12-0.14,0.17-0.22c0.05-0.07,0.1-0.13,0.15-0.19
			c0.01-0.01,0.01-0.02,0.02-0.03c0-0.01,0.01-0.02,0.02-0.03c0,0,0,0,0,0c0,0.01,0,0.02,0,0.03
			C247.54,29.06,247.54,29.07,247.54,29.09 M228.82,14.51c0-0.04,0.01-0.08,0.01-0.12c0-0.08,0.01-0.16,0.02-0.24
			c0-0.06,0.01-0.12,0.02-0.19c0.01-0.08,0.02-0.17,0.03-0.25c0.01-0.05,0.01-0.09,0.02-0.14l0-0.02c0,0,0-0.01,0-0.01
			c0.04-0.29,0.1-0.58,0.17-0.86l0.01-0.05c0.04-0.14,0.08-0.28,0.12-0.42l0.01-0.03c0.04-0.12,0.08-0.25,0.13-0.37l0.01-0.03
			c0-0.01,0-0.01,0-0.01l0.01-0.02c0.05-0.13,0.1-0.25,0.15-0.37l0.01-0.02c0,0,0,0,0,0l0.03-0.06c0.04-0.1,0.09-0.19,0.13-0.29
			l0.03-0.06c0,0,0,0,0,0l0.02-0.04c0.05-0.11,0.11-0.22,0.17-0.32c0-0.01,0.01-0.01,0.01-0.02c0.01-0.02,0.03-0.05,0.04-0.07
			c0-0.01,0.01-0.01,0.01-0.02l0.01-0.02c0.04-0.07,0.08-0.14,0.12-0.21l0.02-0.03c0,0,0.01-0.01,0.01-0.02
			c0.01-0.02,0.02-0.04,0.03-0.06c0.01-0.01,0.02-0.03,0.02-0.04c0.06-0.09,0.12-0.18,0.18-0.27c0-0.01,0.01-0.01,0.02-0.02
			c0.02-0.03,0.04-0.06,0.06-0.09c0.01-0.02,0.03-0.04,0.04-0.06c0.03-0.04,0.06-0.09,0.09-0.13c0.01-0.01,0.02-0.03,0.03-0.04
			c0.06-0.08,0.12-0.16,0.19-0.25c0.02-0.03,0.04-0.05,0.06-0.08l0.03-0.03c0.01-0.01,0.02-0.03,0.04-0.04
			c0.03-0.03,0.05-0.06,0.08-0.1c0.02-0.02,0.04-0.04,0.05-0.06l0.05-0.06c0.01-0.01,0.01-0.01,0.02-0.02
			c0.08-0.09,0.17-0.19,0.25-0.28c0.01,0,0.01-0.01,0.01-0.01c0.01-0.01,0.01-0.01,0.02-0.02c0.02-0.02,0.04-0.04,0.06-0.06
			l0.03-0.03c0.07-0.07,0.14-0.14,0.2-0.2l0,0h0c0.01-0.01,0.02-0.01,0.02-0.02c0.03-0.03,0.06-0.06,0.09-0.08
			c0.09-0.08,0.18-0.16,0.26-0.24l0.03-0.02l0.03-0.02c0,0,0,0,0,0c0.11-0.09,0.22-0.18,0.32-0.26c0,0,0,0,0,0l0.1-0.07
			c0,0,0.01-0.01,0.02-0.01c0.08-0.06,0.17-0.12,0.25-0.18c0.02-0.01,0.04-0.03,0.05-0.04c0.01-0.01,0.02-0.01,0.02-0.02
			c0.01,0,0.02-0.01,0.02-0.02c0.1-0.07,0.2-0.13,0.3-0.19c0.01-0.01,0.02-0.01,0.03-0.02l0.02-0.01l0.08-0.05
			c0.02-0.01,0.03-0.02,0.05-0.03c0.1-0.06,0.19-0.11,0.29-0.16l0.02-0.01l0.06-0.03c0.01-0.01,0.03-0.01,0.04-0.02
			c0.08-0.04,0.17-0.09,0.25-0.13c0,0,0.01,0,0.01-0.01l0.05-0.02l0.07-0.04c0.06-0.03,0.13-0.06,0.19-0.09
			c0.03-0.01,0.05-0.02,0.08-0.04l0.14-0.06c0.02-0.01,0.03-0.01,0.05-0.02c0.05-0.02,0.11-0.05,0.16-0.07
			c0.03-0.01,0.05-0.02,0.07-0.03l0.12-0.05c0.05-0.02,0.11-0.04,0.16-0.06c0.04-0.01,0.08-0.03,0.12-0.04
			c0.02,0,0.03-0.01,0.05-0.02l0.17-0.05h0c0.04-0.01,0.09-0.03,0.14-0.04c0.05-0.01,0.11-0.03,0.16-0.05l0.02-0.01
			c0.05-0.01,0.09-0.02,0.14-0.03l0.09-0.02c0.03-0.01,0.06-0.01,0.09-0.02l0.01,0c0.01,0,0.03,0,0.04-0.01
			c0.13-0.03,0.26-0.05,0.39-0.07c0.03-0.01,0.06-0.01,0.1-0.02c0.13-0.02,0.26-0.04,0.39-0.05c0.04,0,0.07-0.01,0.11-0.01
			c0.11-0.01,0.22-0.02,0.34-0.03c0.06-0.01,0.11-0.01,0.17-0.02c0.1,0,0.21,0,0.31-0.01c0.06,0,0.12-0.01,0.17-0.01h0.01h0.01
			c0.02,0,0.05,0,0.07,0h0.01c0.01,0,0.03,0,0.04,0c0.13,0,0.26,0,0.39,0.01c0.03,0,0.06,0,0.08,0c0.01,0,0.01,0,0.02,0l0.07,0.01
			c0.03,0,0.06,0,0.09,0.01c0.08,0.01,0.17,0.01,0.25,0.02c0.01,0,0.03,0,0.04,0.01c0.02,0,0.04,0,0.06,0.01l0.06,0.01
			c0.08,0.01,0.16,0.02,0.24,0.04c0.04,0,0.08,0.01,0.12,0.01c0.03,0.01,0.07,0.01,0.1,0.02l0.04,0.01
			c0.12,0.02,0.23,0.04,0.35,0.07c0,0,0,0,0.01,0l0.04,0.01l0.03,0.01c0.03,0.01,0.06,0.01,0.06,0.01l0.05,0.01l0.16,0.04l0,0
			c0.02,0.01,0.04,0.01,0.06,0.02l0.03,0.01c0.16,0.04,0.32,0.09,0.48,0.14l0.02,0c0.01,0,0.02,0.01,0.04,0.01
			c0.44,0.15,0.86,0.32,1.26,0.53c0.01,0.01,0.02,0.01,0.03,0.02c0.02,0.01,0.04,0.02,0.05,0.03l0.04,0.02l0.14,0.07
			c0.02,0.01,0.04,0.02,0.06,0.04c0.03,0.02,0.06,0.03,0.1,0.06l0.05,0.03c0.01,0.01,0.02,0.02,0.04,0.02
			c0.01,0.01,0.03,0.01,0.04,0.02l0.11,0.07c0.02,0.01,0.03,0.02,0.05,0.03c0.01,0.01,0.03,0.02,0.04,0.03l0.06,0.04
			c0.02,0.01,0.04,0.03,0.06,0.04c0.06,0.04,0.11,0.07,0.17,0.11c0.02,0.01,0.03,0.02,0.05,0.03l0.04,0.03
			c0.02,0.01,0.04,0.03,0.06,0.05c0.12,0.09,0.24,0.17,0.35,0.27c0.02,0.01,0.03,0.02,0.04,0.03c0.03,0.03,0.07,0.06,0.11,0.08
			c0.08,0.07,0.16,0.13,0.24,0.2c0.01,0.01,0.03,0.02,0.04,0.04c0.07,0.06,0.14,0.13,0.21,0.2c0.01,0.01,0.03,0.03,0.05,0.04
			l0.07,0.07c0.01,0.01,0.02,0.03,0.04,0.04c0.02,0.03,0.05,0.05,0.08,0.08c0.03,0.03,0.06,0.06,0.09,0.1
			c0.03,0.03,0.06,0.06,0.09,0.09c0.01,0.02,0.03,0.03,0.04,0.05c0.04,0.04,0.07,0.08,0.1,0.11c0.01,0.01,0.02,0.02,0.03,0.03
			c0.03,0.04,0.07,0.08,0.1,0.11c0.01,0.02,0.02,0.03,0.03,0.04c0.04,0.05,0.07,0.09,0.11,0.14c0,0.01,0.01,0.01,0.02,0.02
			c0.03,0.03,0.06,0.07,0.09,0.1l0.02,0.03c0.03,0.03,0.05,0.06,0.07,0.09c0.02,0.02,0.04,0.05,0.05,0.07
			c0.01,0.01,0.01,0.02,0.02,0.03c0.02,0.03,0.04,0.06,0.06,0.09l0.03,0.05c0.01,0.02,0.02,0.03,0.03,0.05
			c0.06,0.09,0.12,0.17,0.18,0.26c0.01,0.01,0.02,0.03,0.03,0.04l0.03,0.04c0.03,0.05,0.06,0.09,0.09,0.14
			c0,0.01,0.01,0.02,0.01,0.03c0.01,0.01,0.02,0.03,0.03,0.05c0.01,0.02,0.02,0.03,0.03,0.05l0.04,0.07
			c0.04,0.06,0.07,0.12,0.1,0.18c0.01,0.01,0.02,0.03,0.02,0.04c0.01,0.02,0.02,0.04,0.04,0.07c0.01,0.02,0.02,0.04,0.03,0.06
			c0.04,0.07,0.07,0.14,0.1,0.21c0.01,0.01,0.01,0.02,0.02,0.03c0.01,0.03,0.03,0.06,0.04,0.09c0.01,0.02,0.01,0.03,0.02,0.05
			c0.04,0.08,0.07,0.15,0.1,0.22l0.01,0.03c0.01,0.01,0.01,0.03,0.02,0.04c0.01,0.02,0.02,0.04,0.02,0.06
			c0.01,0.01,0.01,0.03,0.02,0.04c0.04,0.08,0.07,0.17,0.1,0.26l0.02,0.05c0,0.01,0.01,0.02,0.01,0.03
			c0.01,0.02,0.01,0.03,0.02,0.04c0,0.01,0,0.01,0.01,0.02c0.05,0.13,0.09,0.26,0.13,0.39l0,0.02c0.04,0.14,0.08,0.27,0.12,0.41
			c0,0,0,0.01,0,0.01c0.01,0.02,0.01,0.04,0.02,0.06v0l0.01,0.05c0.02,0.1,0.05,0.2,0.07,0.29c0,0.01,0,0.03,0.01,0.05
			c0,0.02,0,0.04,0.01,0.05c0,0.01,0,0.01,0,0.02l0.01,0.04c0.02,0.09,0.03,0.19,0.05,0.28c0,0.02,0.01,0.05,0.01,0.07
			c0,0.01,0,0.02,0,0.02c0,0.02,0.01,0.05,0.01,0.07c0.01,0.09,0.03,0.19,0.03,0.29l0,0.03c0,0.01,0,0.02,0,0.03
			c0,0.02,0.01,0.05,0.01,0.07c0,0.01,0,0.02,0,0.03c0.01,0.1,0.02,0.21,0.02,0.31l0,0.05c0,0.02,0,0.03,0,0.04v0.01
			c0,0.01,0,0.02,0,0.03c0.01,0.15,0.01,0.3,0.01,0.45c0,0,0,0.01,0,0.02c-0.09-0.11-0.17-0.22-0.25-0.33
			c-0.03-0.04-0.07-0.08-0.1-0.12c-0.21-0.25-0.43-0.5-0.7-0.77l-0.09-0.09c-0.05-0.05-0.11-0.1-0.16-0.15
			c-0.03-0.03-0.06-0.06-0.09-0.09c-0.49-0.46-1.05-0.89-1.65-1.28c-0.25-0.17-0.48-0.3-0.7-0.43c-0.03-0.02-0.06-0.03-0.09-0.05
			l-0.07-0.03c-0.29-0.16-0.56-0.29-0.82-0.4l-0.11-0.05h0c-1.04-0.43-2.13-0.72-3.26-0.84c-0.01,0-0.02,0-0.03,0v-0.35V9.26V9.02
			c0-0.07-0.01-0.14-0.04-0.21l-0.04-0.08c-0.1-0.18-0.28-0.3-0.5-0.32h0c-0.01,0-0.03,0-0.04,0s-0.03,0-0.04,0h0h-1.09h-0.32
			c-0.06-0.01-0.19,0-0.34,0.05c-0.31,0.09-0.57,0.3-0.72,0.45c0,0-0.01,0.01-0.01,0.01c-0.02,0.02-0.03,0.04-0.03,0.07
			c0,0.04,0.03,0.08,0.07,0.1c0,0,0.01,0,0.01,0c0.23,0.06,0.41,0.22,0.52,0.42v0c0.05,0.1,0.08,0.2,0.09,0.32v0
			c0,0.03,0,0.07,0,0.11v0.02c0,0.03,0,0.05,0,0.08c0,0.09,0,0.21,0,0.35c-0.06,0.01-0.12,0.01-0.17,0.02
			c-0.3,0.04-0.57,0.08-0.83,0.13c-0.09,0.02-0.18,0.04-0.26,0.06c-0.01,0-0.03,0.01-0.04,0.01c-0.26,0.06-0.53,0.13-0.8,0.21
			l-0.09,0.03c-0.05,0.02-0.11,0.03-0.16,0.05c-0.27,0.09-0.55,0.19-0.83,0.3l-0.08,0.03c-0.04,0.02-0.09,0.03-0.13,0.05
			c-0.28,0.12-0.57,0.26-0.86,0.41l-0.04,0.02c-0.03,0.01-0.06,0.03-0.08,0.04c-1.3,0.71-2.44,1.65-3.39,2.79l-0.05,0.06
			c-0.11,0.14-0.22,0.28-0.33,0.42V15C228.81,14.86,228.81,14.7,228.82,14.51 M229.53,25.42l0.01-0.02c0,0,0,0,0,0l0.03-0.06
			c0.04-0.1,0.09-0.19,0.13-0.29l0.03-0.06c0,0,0,0,0,0l0.02-0.04c0.05-0.11,0.11-0.21,0.17-0.32c0-0.01,0.01-0.01,0.01-0.01
			c0.01-0.02,0.03-0.05,0.04-0.07c0-0.01,0.01-0.01,0.01-0.02l0.01-0.02c0.04-0.07,0.08-0.14,0.12-0.21l0.02-0.03
			c0,0,0.01-0.01,0.01-0.01c0.01-0.02,0.02-0.04,0.03-0.06c0.01-0.01,0.02-0.03,0.02-0.04c0.06-0.09,0.12-0.18,0.18-0.27
			c0-0.01,0.01-0.02,0.02-0.02c0.02-0.03,0.04-0.05,0.06-0.08c0,0,0,0,0,0c2.14,1.9,4.87,2.94,7.73,2.94c2.86,0,5.58-1.04,7.73-2.93
			c0,0,0,0,0,0c0.04,0.06,0.08,0.11,0.11,0.16c0.01,0.01,0.02,0.03,0.03,0.04l0.03,0.04c0.03,0.05,0.06,0.09,0.09,0.14
			c0,0.01,0.01,0.02,0.01,0.03c0.01,0.01,0.02,0.03,0.03,0.05c0.01,0.01,0.02,0.03,0.03,0.05l0.04,0.07
			c0.04,0.06,0.07,0.12,0.1,0.18c0.01,0.01,0.02,0.03,0.02,0.05c0.01,0.02,0.02,0.04,0.04,0.07c0.01,0.02,0.02,0.04,0.03,0.06
			c0.04,0.07,0.07,0.14,0.1,0.21c0.01,0.01,0.01,0.02,0.02,0.03c0.01,0.03,0.03,0.06,0.04,0.09c0.01,0.02,0.01,0.03,0.02,0.05
			c0.04,0.07,0.07,0.15,0.1,0.22l0.01,0.03c0.01,0.01,0.01,0.03,0.02,0.04c0.01,0.02,0.02,0.04,0.02,0.06
			c0.01,0.01,0.01,0.02,0.02,0.04c0.01,0.02,0.02,0.05,0.03,0.07c-0.55,1.36-1.41,2.56-2.49,3.51c0,0-0.01,0.01-0.01,0.01
			c-0.12,0.1-0.25,0.21-0.37,0.31c-0.04,0.03-0.07,0.06-0.11,0.08c-0.09,0.07-0.18,0.14-0.28,0.21c-0.06,0.04-0.12,0.08-0.17,0.12
			c-0.08,0.05-0.15,0.1-0.23,0.15c-0.14,0.09-0.27,0.17-0.41,0.25c-0.01,0.01-0.02,0.01-0.03,0.02c-0.1,0.06-0.2,0.11-0.3,0.16
			c-0.02,0.01-0.04,0.02-0.07,0.03c-0.1,0.05-0.19,0.1-0.29,0.14c-0.03,0.01-0.05,0.02-0.08,0.04c-0.1,0.04-0.19,0.09-0.29,0.13
			c-0.02,0.01-0.05,0.02-0.07,0.03c-0.29,0.12-0.59,0.22-0.89,0.31c-0.06,0.02-0.13,0.04-0.19,0.05c-0.06,0.02-0.13,0.03-0.19,0.05
			c-0.08,0.02-0.16,0.04-0.24,0.06c-0.06,0.01-0.11,0.02-0.17,0.03c-0.09,0.02-0.19,0.03-0.28,0.05c-0.05,0.01-0.1,0.02-0.14,0.02
			c-0.11,0.02-0.23,0.03-0.34,0.04c-0.03,0-0.06,0.01-0.09,0.01c-0.15,0.02-0.31,0.03-0.46,0.03c-0.05,0-0.1,0-0.16,0l-0.16,0h-0.05
			c-0.04,0-0.07,0-0.11,0c-0.02,0-0.04,0-0.06,0c-0.13,0-0.27,0-0.41-0.01h-0.02c-0.05,0-0.1-0.01-0.15-0.01
			c-0.07,0-0.14-0.01-0.2-0.02c-0.04,0-0.08,0-0.11-0.01c-0.02,0-0.03,0-0.05,0l-0.03,0l-0.02,0c-0.11-0.01-0.23-0.03-0.34-0.04
			c-0.01,0-0.02,0-0.03-0.01h0c-0.03,0-0.05-0.01-0.08-0.01c0,0-0.01,0-0.02,0l-0.11-0.02c-0.03,0-0.05-0.01-0.08-0.01
			c-0.06-0.01-0.12-0.02-0.17-0.03c-0.03-0.01-0.07-0.01-0.1-0.02c-0.01-0.01-0.03-0.01-0.04-0.01l-0.15-0.03
			c-0.05-0.01-0.11-0.02-0.16-0.04c0,0,0,0-0.01,0c-0.06-0.02-0.13-0.04-0.19-0.06h0c-0.07-0.02-0.14-0.04-0.22-0.06
			c-0.01,0-0.01,0-0.02,0c-0.12-0.04-0.23-0.08-0.35-0.12l-0.01,0c-0.01,0-0.03-0.01-0.04-0.01c-0.01,0-0.02-0.01-0.03-0.01
			c-0.02-0.01-0.04-0.01-0.06-0.02c-0.09-0.04-0.19-0.07-0.28-0.11l-0.08-0.03l0,0l0,0c-0.12-0.05-0.23-0.1-0.34-0.15
			c-0.01,0-0.01-0.01-0.02-0.01l-0.11-0.05c0,0-0.01-0.01-0.01-0.01c-0.09-0.04-0.17-0.08-0.25-0.13c-0.01-0.01-0.03-0.01-0.04-0.02
			l-0.04-0.02l-0.17-0.09c-0.06-0.03-0.12-0.07-0.18-0.1c-0.01,0-0.01,0-0.02-0.01l-0.04-0.02c-0.03-0.02-0.07-0.04-0.1-0.07
			c0,0,0,0,0,0c0,0,0,0,0,0l-0.09-0.05c0,0,0,0-0.01,0c-0.05-0.03-0.1-0.06-0.15-0.1c0,0-0.01,0-0.01-0.01
			c-0.05-0.04-0.11-0.07-0.16-0.11l-0.1-0.07c-0.02-0.01-0.03-0.02-0.05-0.03c-0.01-0.01-0.02-0.01-0.03-0.02l-0.01-0.01
			c-0.03-0.02-0.05-0.04-0.08-0.06c-0.06-0.04-0.11-0.09-0.17-0.13l-0.07-0.06l-0.04-0.03c-0.01-0.01-0.01-0.01-0.02-0.02
			c-0.08-0.07-0.17-0.14-0.25-0.21l-0.01-0.01c-1.08-0.95-1.94-2.15-2.49-3.51C229.5,25.5,229.52,25.46,229.53,25.42 M244.37,22.02
			C244.37,22.02,244.37,22.03,244.37,22.02c-0.01,0.01-0.01,0.01-0.01,0.01c-0.12,0.1-0.25,0.21-0.37,0.31
			c-0.04,0.03-0.07,0.06-0.11,0.08c-0.09,0.07-0.18,0.14-0.28,0.21c-0.06,0.04-0.12,0.08-0.17,0.12c-0.08,0.05-0.15,0.1-0.23,0.15
			c-0.14,0.09-0.27,0.17-0.41,0.25c-0.01,0.01-0.02,0.01-0.03,0.02c-0.1,0.05-0.2,0.11-0.3,0.16c-0.02,0.01-0.04,0.02-0.07,0.03
			c-0.1,0.05-0.19,0.1-0.29,0.14c-0.03,0.01-0.05,0.02-0.08,0.04c-0.1,0.04-0.19,0.09-0.29,0.13c-0.02,0.01-0.05,0.02-0.07,0.03
			c-0.29,0.12-0.59,0.22-0.89,0.31c-0.06,0.02-0.13,0.04-0.19,0.05c-0.06,0.02-0.13,0.03-0.19,0.05c-0.08,0.02-0.16,0.04-0.24,0.06
			c-0.06,0.01-0.11,0.02-0.17,0.03c-0.09,0.02-0.19,0.03-0.28,0.05c-0.05,0.01-0.1,0.02-0.14,0.02c-0.11,0.02-0.23,0.03-0.34,0.04
			c-0.03,0-0.06,0.01-0.09,0.01c-0.15,0.02-0.31,0.03-0.46,0.03c-0.05,0-0.1,0-0.16,0l-0.16,0h-0.05c-0.04,0-0.07,0-0.11,0
			c-0.02,0-0.04,0-0.06,0c-0.13,0-0.27,0-0.41-0.01h-0.02c-0.05,0-0.1-0.01-0.15-0.01c-0.07,0-0.14-0.01-0.2-0.01
			c-0.04,0-0.08,0-0.11-0.01c-0.02,0-0.03,0-0.05,0l-0.03,0l-0.02,0c-0.11-0.01-0.23-0.03-0.34-0.04c-0.01,0-0.02,0-0.03,0h0
			c-0.03,0-0.05-0.01-0.08-0.01c0,0-0.01,0-0.02,0l-0.11-0.02c-0.03,0-0.05-0.01-0.08-0.01c-0.06-0.01-0.12-0.02-0.17-0.03
			c-0.03-0.01-0.07-0.01-0.1-0.02c-0.01,0-0.03-0.01-0.04-0.01l-0.15-0.03c-0.05-0.01-0.11-0.02-0.16-0.04c0,0,0,0-0.01,0
			c-0.06-0.02-0.13-0.04-0.19-0.06h0c-0.07-0.02-0.14-0.04-0.22-0.06c-0.01,0-0.01,0-0.02,0c-0.12-0.04-0.23-0.08-0.35-0.12l-0.01,0
			c-0.01-0.01-0.03-0.01-0.04-0.02c-0.01,0-0.02-0.01-0.03-0.01c-0.02-0.01-0.04-0.01-0.06-0.02c-0.09-0.04-0.19-0.07-0.28-0.11
			l-0.08-0.03l0,0l0,0c-0.12-0.05-0.23-0.1-0.34-0.15c-0.01,0-0.01-0.01-0.02-0.01l-0.11-0.05c0,0-0.01-0.01-0.01-0.01
			c-0.09-0.04-0.17-0.08-0.25-0.13c-0.01-0.01-0.03-0.01-0.04-0.02l-0.04-0.02l-0.17-0.09c-0.06-0.03-0.12-0.07-0.18-0.1
			c-0.01,0-0.01,0-0.02-0.01l-0.04-0.02c-0.03-0.02-0.07-0.04-0.1-0.07c0,0,0,0,0,0c0,0,0,0,0,0l-0.09-0.05c0,0,0,0-0.01,0
			c-0.05-0.03-0.1-0.06-0.15-0.1c0,0-0.01,0-0.01-0.01c-0.05-0.04-0.11-0.07-0.16-0.11l-0.1-0.07c-0.02-0.01-0.03-0.02-0.05-0.03
			c-0.01-0.01-0.02-0.01-0.03-0.02l-0.01-0.01c-0.03-0.02-0.05-0.04-0.08-0.06c-0.06-0.04-0.11-0.08-0.17-0.13l-0.07-0.06
			l-0.04-0.03c-0.01-0.01-0.01-0.01-0.02-0.02c-0.08-0.07-0.17-0.14-0.25-0.21l-0.01-0.01c0,0,0,0,0,0
			c0.03-0.03,0.06-0.05,0.09-0.08l0.03-0.02l0.03-0.02c0,0,0,0,0,0c0.11-0.09,0.22-0.18,0.32-0.26c0,0,0,0,0,0l0.1-0.07
			c0,0,0.01-0.01,0.02-0.01c0.08-0.06,0.17-0.12,0.25-0.18c0.02-0.01,0.04-0.03,0.05-0.04c0.01-0.01,0.02-0.01,0.02-0.02
			c0.01,0,0.02-0.01,0.02-0.02c0.1-0.07,0.2-0.13,0.3-0.19c0.01-0.01,0.02-0.02,0.03-0.02l0.02-0.01l0.08-0.05
			c0.02-0.01,0.03-0.02,0.05-0.03c0.1-0.06,0.19-0.11,0.29-0.16l0.02-0.01l0.06-0.03c0.01-0.01,0.03-0.01,0.04-0.02
			c0.08-0.04,0.17-0.08,0.25-0.13c0,0,0.01,0,0.01-0.01l0.05-0.02l0.07-0.04c0.06-0.03,0.13-0.06,0.19-0.09
			c0.03-0.01,0.05-0.02,0.08-0.04l0.14-0.06c0.02-0.01,0.03-0.01,0.05-0.02c0.05-0.02,0.11-0.04,0.16-0.07
			c0.03-0.01,0.05-0.02,0.07-0.03l0.12-0.05c0.05-0.02,0.11-0.04,0.16-0.05c0.04-0.01,0.08-0.03,0.12-0.04
			c0.02-0.01,0.03-0.01,0.05-0.02l0.17-0.05h0c0.04-0.02,0.09-0.03,0.14-0.04c0.05-0.01,0.11-0.03,0.16-0.05l0.02-0.01
			c0.05-0.01,0.09-0.02,0.14-0.03l0.09-0.02c0.03-0.01,0.06-0.01,0.09-0.02l0.01,0c0.01,0,0.03,0,0.04-0.01
			c0.13-0.03,0.26-0.05,0.39-0.07c0.03-0.01,0.06-0.01,0.1-0.02c0.13-0.02,0.26-0.04,0.39-0.05c0.04,0,0.07-0.01,0.11-0.01
			c0.11-0.01,0.22-0.02,0.34-0.03c0.06-0.01,0.11-0.01,0.17-0.01c0.1,0,0.21,0,0.31-0.01c0.06,0,0.12-0.01,0.17-0.01h0.01h0.01
			c0.02,0,0.05,0,0.07,0h0.01c0.01,0,0.03,0,0.04,0c0.13,0,0.26,0,0.39,0.01c0.03,0,0.06,0,0.08,0c0.01,0,0.01,0,0.02,0l0.07,0.01
			c0.03,0,0.06,0,0.09,0.01c0.08,0.01,0.17,0.01,0.25,0.02c0.01,0,0.03,0,0.04,0.01c0.02,0,0.04,0,0.06,0.01l0.06,0.01
			c0.08,0.01,0.16,0.02,0.24,0.04c0.04,0,0.08,0.01,0.12,0.01c0.03,0.01,0.07,0.01,0.1,0.02l0.04,0.01
			c0.12,0.02,0.23,0.04,0.35,0.07c0,0,0,0,0.01,0l0.04,0.01l0.03,0c0.03,0.01,0.06,0.01,0.06,0.01l0.05,0.01l0.16,0.04l0,0
			c0.02,0.01,0.04,0.01,0.06,0.02l0.03,0.01c0.16,0.04,0.32,0.09,0.48,0.14l0.02,0c0.01,0,0.02,0.01,0.04,0.01
			c0.44,0.15,0.86,0.32,1.26,0.53c0.01,0.01,0.02,0.01,0.03,0.02c0.02,0.01,0.04,0.02,0.05,0.03l0.04,0.02l0.14,0.07
			c0.02,0.01,0.04,0.02,0.06,0.03c0.03,0.02,0.06,0.04,0.1,0.06l0.05,0.03c0.01,0.01,0.02,0.02,0.04,0.02
			c0.01,0.01,0.03,0.02,0.04,0.03l0.11,0.07c0.02,0.01,0.03,0.02,0.05,0.03c0.01,0.01,0.03,0.02,0.04,0.03l0.06,0.04
			c0.02,0.01,0.04,0.02,0.06,0.04c0.06,0.04,0.11,0.07,0.17,0.11c0.02,0.01,0.03,0.02,0.05,0.03l0.04,0.03
			c0.02,0.01,0.04,0.03,0.06,0.05c0.12,0.08,0.24,0.17,0.35,0.27c0.02,0.01,0.03,0.02,0.04,0.03c0.03,0.03,0.07,0.06,0.11,0.08
			c0.08,0.07,0.16,0.13,0.24,0.2C244.36,22.01,244.36,22.02,244.37,22.02 M245.91,20.28c-0.43-0.38-0.91-0.75-1.42-1.08
			c-0.25-0.16-0.48-0.3-0.7-0.43c-0.03-0.02-0.06-0.03-0.09-0.05l-0.07-0.03c-0.29-0.16-0.56-0.29-0.82-0.4l-0.11-0.05h0
			c-1.04-0.43-2.13-0.72-3.26-0.84c-0.01,0-0.02,0-0.03,0v-0.35v-0.78v-0.24c0-0.07-0.01-0.15-0.04-0.21l-0.04-0.08
			c-0.1-0.18-0.28-0.3-0.5-0.32h0c-0.01,0-0.03,0-0.04,0s-0.03,0-0.04,0h0h-1.09h-0.32c-0.06-0.01-0.19,0-0.34,0.05
			c-0.31,0.09-0.57,0.3-0.72,0.45c0,0-0.01,0-0.01,0.01c-0.02,0.02-0.03,0.04-0.03,0.07c0,0.04,0.03,0.08,0.07,0.1
			c0,0,0.01,0,0.01,0c0.23,0.06,0.41,0.22,0.52,0.42v0c0.05,0.1,0.08,0.2,0.09,0.32v0c0,0.03,0,0.07,0,0.11v0.02
			c0,0.02,0,0.05,0,0.08c0,0.09,0,0.21,0,0.35c-0.06,0.01-0.12,0.01-0.17,0.02c-0.3,0.04-0.57,0.08-0.83,0.13
			c-0.09,0.02-0.18,0.04-0.26,0.06l-0.04,0.01c-0.26,0.06-0.53,0.13-0.8,0.21l-0.09,0.03c-0.05,0.02-0.11,0.03-0.16,0.05
			c-0.27,0.09-0.55,0.19-0.83,0.3l-0.08,0.03c-0.04,0.02-0.09,0.03-0.13,0.05c-0.28,0.12-0.57,0.26-0.86,0.41l-0.04,0.02
			c-0.03,0.01-0.06,0.03-0.08,0.04c-0.77,0.42-1.48,0.92-2.13,1.5c-0.37-0.55-0.69-1.14-0.95-1.76c0.02-0.04,0.03-0.07,0.04-0.11
			l0.01-0.02c0,0,0,0,0,0l0.03-0.05c0.04-0.1,0.09-0.19,0.13-0.29l0.03-0.06c0,0,0,0,0,0l0.02-0.04c0.05-0.11,0.11-0.22,0.17-0.32
			c0-0.01,0.01-0.01,0.01-0.01c0.01-0.02,0.03-0.05,0.04-0.07c0-0.01,0.01-0.01,0.01-0.02l0.01-0.02c0.04-0.07,0.08-0.14,0.12-0.21
			l0.02-0.03c0,0,0.01-0.01,0.01-0.02c0.01-0.02,0.02-0.04,0.03-0.06c0.01-0.01,0.02-0.03,0.02-0.04c0.06-0.09,0.12-0.18,0.18-0.27
			c0-0.01,0.01-0.02,0.02-0.02c0.02-0.03,0.04-0.06,0.06-0.09c0.01-0.02,0.03-0.04,0.04-0.06c0.03-0.04,0.06-0.09,0.09-0.13
			c0.01-0.01,0.02-0.03,0.03-0.04c0.06-0.08,0.12-0.16,0.19-0.25c0.02-0.03,0.04-0.05,0.06-0.08l0.03-0.03
			c0.01-0.01,0.02-0.03,0.04-0.04c0.03-0.03,0.05-0.06,0.08-0.1c0.02-0.02,0.04-0.04,0.05-0.06l0.05-0.06
			c0.01-0.01,0.01-0.01,0.02-0.02c0.08-0.09,0.17-0.19,0.25-0.28c0.01,0,0.01-0.01,0.01-0.01c0.01-0.01,0.01-0.01,0.02-0.02
			c0.02-0.02,0.04-0.04,0.06-0.06l0.03-0.03c0.07-0.07,0.14-0.14,0.2-0.2l0,0h0c0.01-0.01,0.02-0.01,0.02-0.02
			c0.03-0.03,0.06-0.06,0.09-0.08c0.09-0.08,0.18-0.16,0.26-0.24l0.03-0.02l0.03-0.02c0,0,0,0,0,0c0.11-0.09,0.22-0.17,0.32-0.26
			c0,0,0,0,0,0l0.1-0.07c0,0,0.01-0.01,0.02-0.01c0.08-0.06,0.17-0.12,0.25-0.18c0.02-0.01,0.04-0.03,0.05-0.04
			c0.01-0.01,0.02-0.01,0.02-0.02c0.01,0,0.02-0.01,0.02-0.02c0.1-0.07,0.2-0.13,0.3-0.19c0.01-0.01,0.02-0.01,0.03-0.02l0.02-0.01
			l0.08-0.05c0.02-0.01,0.03-0.02,0.05-0.03c0.1-0.06,0.19-0.11,0.29-0.16l0.02-0.01l0.06-0.03c0.01-0.01,0.03-0.01,0.04-0.02
			c0.08-0.04,0.17-0.08,0.25-0.13c0,0,0.01,0,0.01-0.01l0.05-0.02l0.07-0.04c0.06-0.03,0.13-0.06,0.19-0.09
			c0.03-0.01,0.05-0.02,0.08-0.04l0.14-0.06c0.02-0.01,0.03-0.01,0.05-0.02c0.05-0.02,0.11-0.04,0.16-0.07
			c0.03-0.01,0.05-0.02,0.07-0.03l0.12-0.05c0.05-0.02,0.11-0.04,0.16-0.05c0.04-0.01,0.08-0.03,0.12-0.04
			c0.02,0,0.03-0.01,0.05-0.02l0.17-0.05h0c0.04-0.02,0.09-0.03,0.14-0.04c0.05-0.01,0.11-0.03,0.16-0.05l0.02,0
			c0.05-0.01,0.09-0.02,0.14-0.03l0.09-0.02c0.03-0.01,0.06-0.02,0.09-0.02l0.01,0c0.01,0,0.03,0,0.04-0.01
			c0.13-0.03,0.26-0.05,0.39-0.07c0.03-0.01,0.06-0.01,0.1-0.02c0.13-0.02,0.26-0.04,0.39-0.05c0.04,0,0.07-0.01,0.11-0.01
			c0.11-0.01,0.22-0.02,0.34-0.03c0.06-0.01,0.11-0.01,0.17-0.01c0.1,0,0.21,0,0.31-0.01c0.06,0,0.12-0.01,0.17-0.01h0.01h0.01
			c0.02,0,0.05,0,0.07,0h0.01c0.01,0,0.03,0,0.04,0c0.13,0,0.26,0,0.39,0.01c0.03,0,0.06,0,0.08,0.01c0.01,0,0.01,0,0.02,0
			l0.07,0.01c0.03,0,0.06,0.01,0.09,0.01c0.08,0.01,0.17,0.01,0.25,0.02c0.01,0,0.03,0,0.04,0.01c0.02,0,0.04,0,0.06,0.01l0.06,0.01
			c0.08,0.01,0.16,0.02,0.24,0.04c0.04,0,0.08,0.01,0.12,0.01c0.03,0.01,0.07,0.01,0.1,0.02l0.04,0.01
			c0.12,0.02,0.23,0.04,0.35,0.07c0,0,0,0,0.01,0l0.04,0.01l0.03,0c0.03,0.01,0.06,0.01,0.06,0.01l0.05,0.01l0.16,0.04l0,0
			c0.02,0.01,0.04,0.01,0.06,0.02l0.03,0.01c0.16,0.04,0.32,0.09,0.48,0.14l0.02,0c0.01,0,0.02,0.01,0.04,0.01
			c0.44,0.15,0.86,0.32,1.26,0.53c0.01,0.01,0.02,0.01,0.03,0.02c0.02,0.01,0.04,0.02,0.05,0.03l0.04,0.02l0.14,0.07
			c0.02,0.01,0.04,0.02,0.06,0.03c0.03,0.02,0.06,0.04,0.1,0.06l0.05,0.03c0.01,0.01,0.02,0.02,0.04,0.02
			c0.01,0.01,0.03,0.02,0.04,0.03l0.11,0.07c0.02,0.01,0.03,0.02,0.05,0.03c0.01,0.01,0.03,0.02,0.04,0.03l0.06,0.04
			c0.02,0.01,0.04,0.03,0.06,0.04c0.06,0.04,0.11,0.07,0.17,0.11c0.02,0.01,0.03,0.02,0.05,0.03l0.04,0.03
			c0.02,0.01,0.04,0.03,0.06,0.05c0.12,0.09,0.24,0.17,0.35,0.27c0.02,0.01,0.03,0.02,0.04,0.03c0.03,0.03,0.07,0.06,0.11,0.08
			c0.08,0.07,0.16,0.13,0.24,0.2c0.01,0.01,0.03,0.02,0.04,0.04c0.07,0.06,0.14,0.13,0.21,0.2c0.01,0.02,0.03,0.03,0.05,0.04
			l0.07,0.07c0.01,0.01,0.02,0.03,0.04,0.04c0.02,0.03,0.05,0.05,0.08,0.08c0.03,0.03,0.06,0.06,0.09,0.1
			c0.03,0.03,0.06,0.06,0.09,0.09c0.01,0.02,0.03,0.03,0.04,0.05c0.04,0.04,0.07,0.08,0.1,0.11c0.01,0.01,0.02,0.02,0.03,0.03
			c0.03,0.04,0.07,0.07,0.1,0.11c0.01,0.01,0.02,0.03,0.03,0.04c0.04,0.05,0.07,0.09,0.11,0.14c0,0.01,0.01,0.01,0.02,0.02
			c0.03,0.03,0.06,0.07,0.09,0.1l0.02,0.03c0.03,0.03,0.05,0.06,0.07,0.09c0.02,0.02,0.04,0.05,0.05,0.07
			c0.01,0.01,0.01,0.02,0.02,0.03c0.02,0.03,0.04,0.06,0.06,0.09l0.03,0.05c0.01,0.02,0.02,0.03,0.03,0.05
			c0.06,0.09,0.12,0.17,0.18,0.26c0.01,0.01,0.02,0.03,0.03,0.04l0.03,0.04c0.03,0.05,0.06,0.09,0.09,0.14
			c0,0.01,0.01,0.02,0.01,0.03c0.01,0.01,0.02,0.03,0.03,0.05c0.01,0.01,0.02,0.03,0.03,0.05l0.04,0.07
			c0.04,0.06,0.07,0.12,0.1,0.18c0.01,0.02,0.02,0.03,0.02,0.05c0.01,0.02,0.02,0.04,0.04,0.07c0.01,0.02,0.02,0.04,0.03,0.06
			c0.04,0.07,0.07,0.14,0.1,0.21c0.01,0.01,0.01,0.02,0.02,0.03c0.01,0.03,0.03,0.06,0.04,0.09c0.01,0.02,0.01,0.03,0.02,0.05
			c0.04,0.07,0.07,0.15,0.1,0.22l0.01,0.03c0.01,0.01,0.01,0.03,0.02,0.04c0.01,0.02,0.02,0.04,0.02,0.06
			c0.01,0.01,0.01,0.03,0.02,0.04c0.01,0.03,0.02,0.05,0.03,0.08C246.6,19.14,246.28,19.73,245.91,20.28 M249.87,21.97
			c0-0.31-0.02-0.64-0.05-1.01c-0.01-0.12-0.02-0.24-0.04-0.36l0-0.03c-0.02-0.21-0.06-0.42-0.1-0.65l-0.02-0.08
			c-0.02-0.12-0.04-0.23-0.07-0.35c-0.05-0.22-0.11-0.43-0.16-0.63c-0.03-0.12-0.07-0.23-0.1-0.34c0.36-1.14,0.54-2.33,0.54-3.52
			c0-0.01,0-0.02,0-0.04c0-0.31-0.02-0.64-0.05-1.01c-0.01-0.12-0.02-0.24-0.04-0.36l0-0.03c-0.02-0.21-0.06-0.42-0.1-0.65
			l-0.02-0.08c-0.02-0.12-0.04-0.23-0.07-0.35c-0.05-0.22-0.11-0.43-0.16-0.63c-0.06-0.23-0.14-0.44-0.21-0.67
			c-0.04-0.13-0.09-0.25-0.14-0.38c-0.07-0.17-0.14-0.35-0.22-0.53c-0.08-0.18-0.17-0.35-0.25-0.52c-0.02-0.04-0.04-0.07-0.05-0.11
			c-0.03-0.07-0.07-0.14-0.11-0.21l-0.03-0.05c-0.01-0.03-0.03-0.05-0.05-0.08c-0.01-0.02-0.02-0.03-0.03-0.05
			c-0.15-0.26-0.29-0.48-0.42-0.69c-0.04-0.06-0.08-0.11-0.12-0.17l-0.06-0.08c-0.15-0.22-0.32-0.44-0.48-0.64
			c-0.03-0.04-0.07-0.08-0.1-0.12c-0.21-0.25-0.43-0.5-0.7-0.77l-0.09-0.09c-0.05-0.05-0.11-0.1-0.16-0.15
			c-0.03-0.03-0.06-0.06-0.09-0.09c-0.49-0.46-1.05-0.89-1.65-1.28c-0.25-0.16-0.48-0.3-0.7-0.43c-0.03-0.02-0.06-0.03-0.09-0.05
			l-0.07-0.03c-0.29-0.16-0.56-0.29-0.82-0.4l-0.11-0.05h0c-1.04-0.43-2.13-0.72-3.26-0.84c-0.01,0-0.02,0-0.03,0V3.02V2.24V2.01
			c0-0.07-0.01-0.15-0.04-0.21l-0.04-0.08c-0.1-0.18-0.28-0.31-0.5-0.32h0c-0.01,0-0.03,0-0.04,0s-0.03,0-0.04,0h0h-1.09h-0.32
			c-0.06-0.01-0.19,0-0.34,0.05c-0.31,0.09-0.57,0.3-0.72,0.45c0,0-0.01,0.01-0.01,0.01c-0.02,0.02-0.03,0.04-0.03,0.07
			c0,0.05,0.03,0.08,0.07,0.1c0,0,0.01,0,0.01,0c0.23,0.06,0.41,0.22,0.52,0.42c0,0,0,0,0,0c0.05,0.1,0.08,0.2,0.09,0.32v0
			c0,0.03,0,0.07,0,0.11v0.02c0,0.03,0,0.05,0,0.08c0,0.09,0,0.21,0,0.35c-0.06,0.01-0.12,0.01-0.17,0.02
			c-0.3,0.04-0.57,0.08-0.83,0.13c-0.09,0.02-0.18,0.04-0.26,0.05l-0.04,0.01c-0.26,0.06-0.53,0.13-0.8,0.21l-0.09,0.03
			c-0.05,0.02-0.11,0.03-0.16,0.05c-0.27,0.09-0.55,0.19-0.83,0.3l-0.08,0.03c-0.04,0.02-0.09,0.03-0.13,0.05
			c-0.28,0.12-0.57,0.26-0.86,0.41l-0.04,0.02c-0.03,0.01-0.06,0.03-0.08,0.04c-1.3,0.71-2.44,1.65-3.39,2.79l-0.05,0.06
			c-0.23,0.28-0.44,0.56-0.63,0.83c-0.03,0.04-0.05,0.08-0.08,0.12l-0.05,0.07c-0.12,0.19-0.25,0.4-0.39,0.64l-0.04,0.07
			c-0.05,0.08-0.09,0.16-0.14,0.25c-0.14,0.27-0.27,0.53-0.39,0.8l-0.01,0.02c-0.14,0.33-0.27,0.68-0.39,1.03l-0.01,0.04
			c-0.01,0.02-0.01,0.03-0.02,0.05c-0.1,0.32-0.19,0.66-0.26,1c0,0.02-0.01,0.05-0.02,0.07c-0.01,0.04-0.02,0.07-0.02,0.11
			c-0.07,0.34-0.12,0.69-0.16,1.07l-0.01,0.02c0,0.02,0,0.03-0.01,0.05c-0.04,0.39-0.06,0.79-0.06,1.18c0,1.19,0.18,2.37,0.54,3.51
			l0,0c-0.1,0.32-0.19,0.66-0.26,1c0,0.02-0.01,0.05-0.02,0.07c-0.01,0.04-0.02,0.07-0.02,0.11c-0.07,0.34-0.12,0.69-0.16,1.07
			l-0.01,0.02c0,0.02,0,0.03-0.01,0.05c-0.04,0.39-0.06,0.79-0.06,1.18c0,1.19,0.18,2.37,0.54,3.51c0,0,0,0,0,0
			c-0.1,0.32-0.19,0.66-0.26,1c0,0.02-0.01,0.05-0.02,0.07c-0.01,0.04-0.02,0.07-0.02,0.11c-0.07,0.34-0.12,0.69-0.16,1.07
			l-0.01,0.02c0,0.02,0,0.03-0.01,0.05c-0.04,0.39-0.06,0.79-0.06,1.18c0,1.2,0.18,2.38,0.55,3.53c0,0.01,0.01,0.02,0.01,0.03
			c0.04,0.14,0.09,0.28,0.14,0.41c0.05,0.14,0.11,0.29,0.17,0.43c0.26,0.65,0.59,1.27,0.97,1.87c0.02,0.03,0.03,0.05,0.04,0.07
			l0.08,0.12h0c0.04,0.06,0.08,0.12,0.12,0.17c0.08,0.11,0.16,0.23,0.26,0.35c0.01,0.01,0.01,0.02,0.02,0.02
			c0.01,0.01,0.02,0.02,0.02,0.03c0.05,0.06,0.1,0.13,0.15,0.19c0.06,0.07,0.11,0.15,0.17,0.22c0.28,0.34,0.57,0.66,0.87,0.95
			c0.01,0.01,0.03,0.03,0.04,0.04l0.02,0.01c0.05,0.05,0.1,0.09,0.15,0.14c0.07,0.06,0.13,0.12,0.2,0.18
			c2.14,1.9,4.87,2.94,7.73,2.94c2.86,0,5.58-1.04,7.73-2.93c0.07-0.06,0.13-0.12,0.2-0.18c0.05-0.05,0.1-0.09,0.16-0.14
			c0.01-0.01,0.03-0.03,0.04-0.04c0.3-0.29,0.6-0.61,0.87-0.95c0.06-0.07,0.12-0.15,0.17-0.22c0.05-0.07,0.1-0.13,0.15-0.19
			c0.01-0.01,0.01-0.02,0.02-0.03c0-0.01,0.01-0.02,0.02-0.03c0.09-0.13,0.18-0.25,0.26-0.36c0.07-0.1,0.13-0.19,0.19-0.29
			l0.01-0.02c0.01-0.02,0.03-0.04,0.04-0.07c0.38-0.6,0.71-1.23,0.97-1.88c0.06-0.14,0.11-0.28,0.16-0.42
			c0.05-0.13,0.09-0.26,0.14-0.4c0-0.01,0.01-0.03,0.01-0.04c0.36-1.15,0.55-2.33,0.55-3.53c0-0.01,0-0.02,0-0.04
			c0-0.31-0.02-0.64-0.05-1.01c-0.01-0.12-0.02-0.24-0.04-0.36l0-0.03c-0.02-0.21-0.06-0.42-0.1-0.65l-0.02-0.08
			c-0.02-0.12-0.04-0.23-0.07-0.35c-0.05-0.22-0.11-0.43-0.16-0.63c-0.03-0.12-0.07-0.23-0.1-0.35c0.36-1.14,0.54-2.33,0.54-3.52
			C249.87,22.01,249.87,21.99,249.87,21.97"/>
		<path class="st0" d="M104.2,34.24c-0.61-2.27-2.35-3.8-4.7-4.7c-1.32-0.51-2.74-0.87-4.13-1.23C94,27.96,92.6,27.7,91.22,27.4
			c-1.52-0.33-3.09-0.51-4.53-1c-2.4-0.83-3.21-3.03-1.5-4.89c1.03-1.11,2.53-1.56,4.04-1.71c0.79-0.08,1.57-0.12,2.35-0.1
			c0.24,0.01,0.48,0.02,0.72,0.04c0.59,0.06,1.49,0.21,2.59,0.58c0.51,0.17,1.05,0.39,1.62,0.67c0.01,0,0.01-0.01,0.01-0.01
			s0.06,0.03,0.14,0.07c0.32,0.17,0.66,0.34,1,0.54c0.03,0.02,0.07,0.03,0.1,0.05c0.02,0.02,0.05,0.04,0.07,0.05
			c0.84,0.47,1.93,1.11,2.88,1.76c0.01,0,0.11,0.1,0.29,0.2c0.34,0.2,0.89,0.36,1.26-0.31c0,0,2.02-3.87,2.03-3.9
			c0,0,0.03-0.07,0.04-0.1c0.05-0.12,0.09-0.24,0.11-0.36c0.04-0.18,0.06-0.36,0.06-0.55c0-0.09-0.01-0.25-0.02-0.31
			c-0.02-0.09-0.1-0.16-0.2-0.16c-0.05,0-0.1,0.02-0.13,0.05c-0.01,0.01-0.01,0.02-0.02,0.02c0,0,0,0-0.01,0.01
			c-0.32,0.34-0.78,0.55-1.28,0.55c-0.18,0-0.7-0.03-1.2-0.25c0,0,0,0,0,0c-0.15-0.07-0.34-0.15-0.54-0.25
			c-0.32-0.15-1.16-0.61-1.27-0.68c-1.34-0.79-1.34-0.76-1.88-1.02c-0.25-0.12-1.27-0.51-1.92-0.67
			c-7.14-1.99-12.84,1.24-12.84,1.24c-0.37,0.19-0.74,0.4-1.09,0.64c-2.16,1.51-3.44,3.47-3.62,5.94c-0.05,0.76,0.03,3.48,1.77,5.27
			c1.32,1.36,2.96,2.21,4.89,2.63c1.48,0.33,2.97,0.63,4.45,0.95c0.48,0.1,0.98,0.18,1.47,0.29c1.3,0.28,2.6,0.54,3.88,0.89
			c0.74,0.2,1.48,0.49,2.11,0.88c1.19,0.7,1.47,1.79,1.35,3.02c-0.08,0.89-0.52,1.65-1.25,2.22c-0.88,0.71-1.94,1.09-3.04,1.28
			c-0.04,0-0.54,0.08-0.74,0.1c-0.03,0.01-0.36,0.03-0.49,0.05c-2.54,0.22-4.57-0.22-5.61-0.53c0,0-0.65-0.14-1.54-0.51
			c0,0-0.01-0.01-0.01-0.01c-0.84-0.32-1.59-0.77-2.29-1.32c-0.29-0.23-0.58-0.47-0.86-0.73c-0.24-0.22-0.49-0.48-0.74-0.73
			c-0.56-0.57-1.29-1.33-1.34-1.38c0,0,0,0,0,0c0,0,0,0,0,0c-0.02-0.01-0.04-0.02-0.06-0.02c-0.04,0-0.07,0.02-0.09,0.06
			c0,0,0,0,0,0c0,0,0,0,0,0c-0.02,0.02-2.44,4.7-2.44,4.7s0,0.01-0.01,0.02l-0.08,0.16c0,0,0.05,0.08,0.15,0.18l0,0
			c0.19,0.19,0.37,0.36,0.56,0.52c0.29,0.25,0.57,0.51,0.88,0.74c0.14,0.11,0.23,0.18,0.23,0.18s0.21,0.15,0.31,0.22
			c2.3,1.62,4.94,2.51,7.77,2.75c3.05,0.25,6.13,0.29,9.13-0.62c1.63-0.49,3.17-1.08,4.46-2.07
			C104.25,40.49,105.1,37.55,104.2,34.24"/>
		<path class="st0" d="M145.47,16.71c-0.01,0-0.01-0.01-0.01-0.02c-0.01-0.01-0.01-0.01-0.02-0.02c-0.44-0.4-1.03-0.65-1.68-0.65
			h-4.81c-0.07,0-0.13,0.01-0.19,0.02c-0.24,0.06-0.43,0.22-0.53,0.44l0,0.01c0,0,0,0.01-0.01,0.01l-0.13,0.28
			c0,0.01,0,0.01-0.01,0.02c-0.04,0.09-0.13,0.28-0.21,0.45l0.06-0.11l-7.31,16.5L130.47,34l-0.01,0.02
			c-0.01,0.03-0.04,0.04-0.07,0.04c-0.03,0-0.06-0.02-0.07-0.04L130.32,34l-0.15-0.34l-7.31-16.5l0.05,0.11
			c-0.08-0.17-0.16-0.36-0.21-0.45c0-0.01-0.01-0.01-0.01-0.02l-0.13-0.28c0,0,0-0.01-0.01-0.01l0-0.01h0
			c-0.1-0.22-0.29-0.38-0.53-0.44c-0.06-0.02-0.12-0.02-0.19-0.02h-4.81c-0.64,0-1.23,0.24-1.68,0.65
			c-0.01,0.01-0.01,0.01-0.02,0.02c0,0.01-0.01,0.01-0.01,0.02c-0.03,0.04-0.05,0.08-0.05,0.13c0,0.1,0.07,0.18,0.16,0.2
			c0,0,0.01,0,0.01,0c0,0,0.01,0,0.01,0c0,0,0.01,0,0.01,0c0.37,0.04,0.7,0.18,0.96,0.41c0.37,0.32,0.6,0.79,0.6,1.31v2.26v23.74
			v0.83h4.19h0.76c0.05,0,0.09-0.04,0.1-0.09v-0.01v-0.56V27.03c0.52,1.09,8.24,18.52,8.24,18.52l0.01,0.03
			c0.01,0.02,0.04,0.04,0.07,0.04c0.03,0,0.05-0.02,0.07-0.04l0.01-0.03c0,0,7.72-17.43,8.24-18.52v17.92v0.56v0.01
			c0,0.05,0.04,0.09,0.09,0.09h0.76h4.19v-0.83V21.04v-2.26c0-0.53,0.24-1,0.61-1.31c0.26-0.23,0.59-0.38,0.96-0.41
			c0,0,0.01,0,0.01,0l0.01,0c0.01,0,0.01,0,0.01,0c0.09-0.02,0.16-0.1,0.16-0.2C145.52,16.8,145.5,16.75,145.47,16.71"/>
		<path class="st0" d="M170.27,18.48l-0.86-1.93l-0.05-0.11c-0.13-0.24-0.39-0.41-0.69-0.41h-1.93h-0.99h-1.08
			c-0.35,0-0.69,0.07-1,0.19c-0.29,0.12-0.55,0.28-0.78,0.48c-0.01,0.01-0.01,0.01-0.02,0.02c-0.01,0.01-0.01,0.01-0.02,0.02
			c-0.03,0.04-0.05,0.08-0.05,0.13c0,0.09,0.06,0.17,0.14,0.2c0.01,0,0.01,0.01,0.01,0.01c0.01,0,0.02,0,0.03,0
			c0.78,0.19,1.36,0.89,1.36,1.73c0,0.23-0.05,0.45-0.13,0.66c-0.02,0.04-0.03,0.07-0.05,0.11l-0.05,0.12l-0.5,1.13l-0.13,0.3
			l-10.83,24.48h5.54c0.03,0,0.06-0.02,0.07-0.05l0-0.01l9.18-20.76l9.18,20.76l0,0c0.01,0.03,0.04,0.05,0.08,0.05h5.54
			L170.27,18.48z"/>
	</g>
</g>
<g id="레이어_3" class="st50">
	<rect x="29.98" y="14.67" class="st52" width="2084.75" height="33.56"/>
</g>
</svg>
