<?xml version="1.0" encoding="utf-8"?>
<!-- Generator: Adobe Illustrator 27.5.0, SVG Export Plug-In . SVG Version: 6.00 Build 0)  -->
<svg version="1.1" xmlns="http://www.w3.org/2000/svg" xmlns:xlink="http://www.w3.org/1999/xlink" x="0px" y="0px"
	 viewBox="0 0 74.21 60" style="enable-background:new 0 0 74.21 60;" xml:space="preserve">
<style type="text/css">
	.st0{fill:#E0D8CE;}
	.st1{opacity:0.8;fill:#E0D8CE;}
	.st2{fill:none;stroke:#415649;stroke-width:0.25;stroke-miterlimit:10;}
	.st3{fill:none;stroke:#4C4C4B;stroke-width:0.25;stroke-miterlimit:10;}
	.st4{fill:#4A423F;}
	.st5{fill:#6F6967;}
	.st6{fill:#655F5D;}
	.st7{fill:url(#SVGID_1_);}
	.st8{fill:url(#SVGID_00000065774778502421945070000015358277073761980814_);}
	.st9{fill:url(#SVGID_00000105416281387271206300000009258464831656701352_);}
	.st10{fill:none;stroke:#ECE1D6;stroke-width:3;stroke-miterlimit:10;}
	.st11{fill:#ECE1D6;}
	.st12{fill:url(#SVGID_00000099650124678075631450000017878468958552260995_);}
	.st13{fill:url(#SVGID_00000023263207031310185780000009342370471211453085_);}
	.st14{fill:none;stroke:#ECE1D6;stroke-width:2.5;stroke-miterlimit:10;}
	.st15{opacity:0.7;fill:#ECE1D6;}
	
		.st16{opacity:0.5;clip-path:url(#SVGID_00000147929300141965132800000005006873546671223224_);fill:url(#SVGID_00000134960992557696161580000003250918892436169914_);}
	
		.st17{clip-path:url(#SVGID_00000012449070644426606370000000056155642594145154_);fill:url(#SVGID_00000137129633934447827600000002597336857040954784_);}
	
		.st18{clip-path:url(#SVGID_00000034072455294078330780000016935891833782562720_);fill:url(#SVGID_00000005234634269793403830000001517380602158736525_);}
	
		.st19{opacity:0.5;clip-path:url(#SVGID_00000106138822600223260600000000575708128845048233_);fill:url(#SVGID_00000088094117922605511850000001998539544845168543_);}
	
		.st20{opacity:0.5;clip-path:url(#SVGID_00000078015014055205363590000010831838379298213307_);fill:url(#SVGID_00000106855663216767553590000017380694509140117139_);}
	.st21{clip-path:url(#SVGID_00000166634077145648064510000002099800443964689288_);fill:#ECE1D6;}
	.st22{fill:#DFD7CE;}
	.st23{fill:url(#SVGID_00000072275127436609104160000004848228494100633788_);}
	.st24{fill:url(#SVGID_00000114775889525341837490000007935330322538185601_);}
	.st25{fill:url(#SVGID_00000002386015025741033660000017654701055757972370_);}
	.st26{fill:#4C4C4B;}
	.st27{fill:url(#SVGID_00000140008472696259193510000001461933903392387743_);}
	.st28{fill:url(#SVGID_00000055680114316964956750000009978751253653772966_);}
	
		.st29{opacity:0.5;clip-path:url(#SVGID_00000049900718065387908480000008788970537538782112_);fill:url(#SVGID_00000072975664836630483540000018220874459450439329_);}
	
		.st30{clip-path:url(#SVGID_00000022540630582007142770000000045034162791297411_);fill:url(#SVGID_00000160901355671205177950000007994651455595635885_);}
	
		.st31{clip-path:url(#SVGID_00000013910210053930241530000004451591675187760776_);fill:url(#SVGID_00000063612945889617550640000002712711042858499229_);}
	
		.st32{opacity:0.5;clip-path:url(#SVGID_00000162337891543681157120000008615118899529709756_);fill:url(#SVGID_00000155830284990703232490000004549511096651726730_);}
	
		.st33{opacity:0.5;clip-path:url(#SVGID_00000009568527142134911080000016083852851669797773_);fill:url(#SVGID_00000085228174751837651690000009801777158595756209_);}
	.st34{clip-path:url(#SVGID_00000005235374351286583940000013230668708634027455_);fill:#4C4C4B;}
	.st35{fill:none;stroke:#2096D5;stroke-miterlimit:10;}
	.st36{fill-rule:evenodd;clip-rule:evenodd;fill:#E0D8CE;}
	.st37{fill:none;stroke:#00A0E9;stroke-width:10;stroke-miterlimit:10;}
	.st38{fill:none;stroke:#E0D8CE;stroke-miterlimit:10;}
	.st39{opacity:0.7;fill:#E0D7CE;}
	.st40{fill:#E0D7CE;}
	.st41{clip-path:url(#SVGID_00000154386549274012954620000007757197731274210962_);}
	.st42{clip-path:url(#SVGID_00000124851828387060257390000015097204690715416238_);}
	.st43{clip-path:url(#SVGID_00000012457742035231134640000001013462442021894840_);}
	.st44{clip-path:url(#SVGID_00000172430818796575703130000000760205145571556737_);}
	.st45{clip-path:url(#SVGID_00000098209762969600108420000016070802601156921523_);}
	.st46{clip-path:url(#SVGID_00000150093176074964728430000017320138364328680365_);}
	.st47{fill:#F1EBE3;}
	.st48{clip-path:url(#SVGID_00000078762397309821279150000015624278498982830259_);}
	.st49{fill-rule:evenodd;clip-rule:evenodd;fill:#E0D7CE;}
	.st50{display:none;}
	.st51{display:inline;fill:none;stroke:#00A0E9;stroke-width:10;stroke-miterlimit:10;}
	.st52{display:inline;fill:none;stroke:#E0D8CE;stroke-miterlimit:10;}
</style>
<g id="레이어_2">
</g>
<g id="레이어_1">
	<g>
		<g>
			<path class="st0" d="M8.72,26.35c-2.39,1.27-4.25,3.02-5.58,5.25c-1.33,2.23-2,4.67-2,7.32c0,3.82,1.37,7.16,4.11,10
				C8,51.77,11.79,53.2,16.63,53.2c2.64,0,4.99-0.47,7.04-1.38v-8.03c-1.3,1.57-2.98,2.55-5.05,2.94c-0.83,0.21-1.7,0.36-2.66,0.36
				c-2.42,0-4.37-0.72-5.86-2.15c-1.49-1.43-2.23-3.28-2.23-5.55c0-1.75,0.44-3.27,1.32-4.55c0.36-0.61,0.77-1.19,1.31-1.71
				c1.6-1.53,3.69-2.3,6.27-2.3c1.42,0,2.66,0.22,3.71,0.65c1.05,0.43,2.12,1.21,3.19,2.33v-7.92c-2.07-0.95-4.38-1.44-6.94-1.44
				C13.78,24.44,11.11,25.07,8.72,26.35z"/>
			<path class="st0" d="M10.11,44.93c1.49,1.43,3.44,2.15,5.86,2.15c0.97,0,1.84-0.15,2.66-0.36c-0.68,0.13-1.4,0.19-2.16,0.19
				c-2.5,0-4.52-0.74-6.05-2.21c-1.54-1.47-2.31-3.37-2.31-5.7c0-1.59,0.39-2.97,1.09-4.18c-0.88,1.28-1.32,2.8-1.32,4.55
				C7.88,41.64,8.62,43.49,10.11,44.93z"/>
			<polygon class="st0" points="71.34,10.95 71.34,10.94 71.34,10.95 			"/>
			<path class="st0" d="M41.7,24.03c-12.96,0-12.44,11.02-12.44,11.02v17.46h6.68V41.83c0-2.77,0.1-6.48,0.29-7.31
				c0.37-1.6,0.94-1.81,1.91-2.72c0.97-0.9,2.92-1.09,3.92-0.94c1.03,0.15,1.74,0.39,2.45,0.94c0.71,0.55,1.04,1.67,1.32,2.72
				c0.28,1.04,0.43,3.15,0.43,6.33v11.66h6.61v-17.6c0-3.07-0.85-5.31-2.32-6.95C46.99,23.96,41.7,24.03,41.7,24.03z"/>
		</g>
		<path class="st0" d="M65.22,25.19l0.02-12.18l0,0c0-1.22,0.41-1.87,0.64-2.15c0.05-0.06,0.1-0.11,0.16-0.17l0.09,0.01l-0.08-0.02
			c0.98-1,2.8-2.01,5.29,0.26V5.1c-2.91-2.35-6.32-1.49-6.32-1.49c-6.81,1.36-6.32,8.32-6.32,8.32c-0.1,0.64-0.16,9.77-0.17,13.26
			h-2.37v5.65h2.37v21.66h6.68V30.85h6.12v-5.65H65.22z"/>
	</g>
</g>
<g id="레이어_3" class="st50">
	<rect x="-1084.67" y="13.98" class="st52" width="2084.75" height="33.56"/>
</g>
</svg>
