<?xml version="1.0" encoding="utf-8"?>
<svg xmlns="http://www.w3.org/2000/svg" fill="none" height="26" overflow="visible" preserveAspectRatio="none" style="display: block;" viewBox="0 0 135 26" width="135">
<g clip-path="url(#clip0_0_100)" id=" ">
<g id="Group">
<path d="M14.0695 14.4553C13.1541 15.507 12.0071 16.3552 10.6906 16.8839L9.92787 17.1861V9.82472L10.6793 10.1268C12.0015 10.6497 13.1485 11.4922 14.0638 12.5438C14.7192 11.4573 15.126 10.2024 15.2108 8.8312C15.4199 5.30449 13.2728 2.06829 10.3234 0.941141L7.88815 0.110303C6.79201 -0.267351 5.62243 0.354325 5.25516 1.48729L0.107839 17.3662C-0.259424 18.4933 0.356447 19.7192 1.45823 20.0969L13.1541 24.1116C14.3463 22.8044 15.1147 21.0788 15.2334 19.1557C15.3351 17.4359 14.9 15.8149 14.0751 14.4553H14.0695ZM7.30618 17.6334H6.14789V9.38896H7.30618V17.6334Z" fill="var(--fill-0, #8899A8)" id="Vector"/>
<path d="M13.391 13.5026C12.7412 12.7124 11.9502 12.0501 11.0405 11.5678V15.4431C11.9502 14.9551 12.7468 14.2927 13.391 13.5026Z" fill="var(--fill-0, #8899A8)" id="Vector_2"/>
<path d="M24.7591 5.90302L14.0294 2.21944C15.4702 3.84045 16.3517 5.99598 16.3573 8.35486C16.3573 10.2199 15.7923 12.0094 14.8091 13.4968C15.7979 14.9841 16.3686 16.7678 16.3743 18.6387C16.3743 20.8697 15.5945 22.9207 14.3006 24.5068L18.3292 25.8896C19.431 26.2673 20.5949 25.6456 20.9622 24.5126L26.1152 8.62793C26.4768 7.49497 25.8666 6.26905 24.7648 5.89721M21.9171 17.6103H20.4706L17.493 13.4909L20.5215 9.36581H21.9792L18.9451 13.4968L21.9227 17.6103H21.9171Z" fill="var(--fill-0, #8899A8)" id="Vector_3"/>
</g>
<g id="Group_2">
<path d="M36.907 6.78615H34.082V24.1292H36.907V6.78615Z" fill="var(--fill-0, #8899A8)" id="Vector_4"/>
<path d="M40.8113 6.78615V24.1292H45.9474C50.3149 24.1175 52.3829 22.5314 52.3829 19.3591C52.3829 17.3721 51.2868 15.8615 49.4787 15.3037L49.3092 15.2514L49.4731 15.1817C51.1568 14.4496 51.9592 13.2004 51.9648 11.318C51.9648 8.35486 49.9985 6.79196 46.0208 6.78615H40.8113ZM45.4614 16.4541C47.4786 16.4541 49.4166 16.7853 49.4222 19.1441C49.4222 19.9924 49.1397 20.678 48.5238 21.0731C47.9136 21.4682 46.987 21.6483 45.6931 21.6483H43.6364V16.4541H45.4614ZM46.3881 9.25542C47.2017 9.25542 49.1341 9.54011 49.1397 11.5562C49.1397 12.6659 48.7046 13.2934 47.9984 13.613C47.2921 13.9383 46.3203 13.979 45.2298 13.979H43.6421V9.25542H46.3937" fill="var(--fill-0, #8899A8)" id="Vector_5"/>
<path d="M68.2148 6.78615C67.322 7.7448 60.6265 15.0074 60.6265 15.0074C60.6265 15.0074 67.8927 23.1124 68.808 24.1292H64.8698C64.5026 23.6934 58.2761 16.3088 58.2761 16.3088V24.1292H55.451V6.78615H58.2761V13.7989C58.2761 13.7989 64.2201 7.16961 64.5704 6.78615H68.2148Z" fill="var(--fill-0, #8899A8)" id="Vector_6"/>
<path d="M100.042 16.6923V18.4702H93.1773V16.6923H90.9398V24.0536H102.325V16.6865H100.042M100.042 20.1435V22.2525H93.1773V20.1435H100.042ZM95.5786 14.5484C96.4092 13.9035 96.946 13.0261 97.155 12.0152H100.054V15.7859H102.314V6.78615H100.054V10.3419H97.1776C97.0081 9.26704 96.5052 8.3781 95.6464 7.69832C94.7876 7.01855 93.7762 6.66413 92.6179 6.66413C91.3805 6.66413 90.29 7.08246 89.3521 7.91911C88.4085 8.74994 87.9283 9.81318 87.9339 11.0972C87.9339 12.3638 88.4029 13.4212 89.3521 14.2637C90.29 15.112 91.3805 15.5303 92.6179 15.5303C93.7423 15.5303 94.7311 15.2049 95.573 14.5542L95.5786 14.5484ZM90.8946 13.061C90.4426 12.5265 90.2166 11.8874 90.2166 11.1146C90.2166 10.3419 90.4482 9.70279 90.9116 9.19151C91.3692 8.68603 91.9342 8.43039 92.6236 8.43039C93.3637 8.43039 93.9288 8.68603 94.3525 9.19151C94.7763 9.7086 94.991 10.3419 94.991 11.1204C94.991 11.899 94.7763 12.5323 94.3356 13.0668C93.8892 13.5955 93.3129 13.857 92.584 13.857C91.9116 13.857 91.3579 13.5955 90.8946 13.061ZM83.5324 6.78034V24.1292H85.7868V6.78034H83.5324ZM72.1699 8.90682H78.08V10.2257C77.9952 14.4089 75.1475 17.8892 71.3337 18.813L71.2319 18.8362L72.3846 20.3003L72.4298 20.2887C76.7691 18.9814 80.357 14.8273 80.357 10.2606V7.21609H72.1642V8.90682H72.1699Z" fill="var(--fill-0, #8899A8)" id="Vector_7"/>
<path d="M109.02 18.4585H106.738V24.0653H118.117V22.392H109.02V18.4585Z" fill="var(--fill-0, #8899A8)" id="Vector_8"/>
<path d="M115.908 7.3962C114.857 6.65832 113.597 6.28648 112.128 6.28648C110.659 6.28648 109.393 6.65832 108.348 7.3962C107.297 8.13989 106.766 9.1857 106.766 10.5104C106.766 11.8351 107.303 12.846 108.348 13.5839C109.393 14.316 110.659 14.682 112.128 14.682C113.597 14.682 114.857 14.316 115.908 13.5839C116.959 12.846 117.49 11.8118 117.49 10.5104C117.49 9.20894 116.959 8.1457 115.908 7.3962ZM114.326 12.3231C113.755 12.7996 113.026 13.0378 112.128 13.0378C111.23 13.0378 110.518 12.7996 109.953 12.3231C109.388 11.8467 109.1 11.2483 109.1 10.5046C109.1 9.76089 109.382 9.14503 109.953 8.63955C110.523 8.12827 111.247 7.87263 112.128 7.87263C113.009 7.87263 113.755 8.12827 114.32 8.63955C114.891 9.14503 115.173 9.76089 115.173 10.5046C115.173 11.2483 114.897 11.8409 114.326 12.3231Z" fill="var(--fill-0, #8899A8)" id="Vector_9"/>
<path d="M119.598 15.5535H104.579V17.3663H119.598V15.5535Z" fill="var(--fill-0, #8899A8)" id="Vector_10"/>
<path d="M133.028 18.5166C132.017 17.9008 130.819 17.5987 129.406 17.5987C127.994 17.5987 126.785 17.9008 125.779 18.5166C124.773 19.1267 124.27 19.975 124.27 21.0615C124.27 22.1479 124.773 22.973 125.779 23.583C126.785 24.1873 127.988 24.4894 129.406 24.4894C130.825 24.4894 132.017 24.1873 133.028 23.583C134.028 22.9788 134.531 22.1363 134.531 21.0615C134.531 19.9866 134.028 19.1209 133.028 18.5166ZM131.531 22.3978C130.977 22.7522 130.271 22.9265 129.406 22.9265C128.542 22.9265 127.853 22.7522 127.293 22.3978C126.745 22.0434 126.463 21.6018 126.463 21.0556C126.463 20.5095 126.745 20.0563 127.293 19.6787C127.853 19.3068 128.559 19.1151 129.406 19.1151C130.254 19.1151 130.983 19.301 131.531 19.6787C132.085 20.0505 132.361 20.5037 132.361 21.0556C132.361 21.6076 132.085 22.0434 131.531 22.3978Z" fill="var(--fill-0, #8899A8)" id="Vector_11"/>
<path d="M126.802 7.01274H121.694V8.56983H126.802V7.01274Z" fill="var(--fill-0, #8899A8)" id="Vector_12"/>
<path d="M132.842 6.78615V10.7893H131.57V6.78615H129.412V16.5877H131.57V12.3464H132.842V17.2675H135V6.78615H132.842Z" fill="var(--fill-0, #8899A8)" id="Vector_13"/>
<path d="M128.638 9.13341H120.795V10.6789H122.44C121.485 11.3122 120.863 12.3173 120.863 13.4677C120.863 15.3908 122.592 16.9479 124.728 16.9479C126.864 16.9479 128.598 15.3908 128.598 13.4677C128.598 12.3173 127.971 11.3122 127.016 10.6789H128.638V9.13341ZM124.728 15.5419C123.717 15.5419 122.897 14.6123 122.897 13.4677C122.897 12.3231 123.717 11.3935 124.728 11.3935C125.739 11.3935 126.57 12.3231 126.57 13.4677C126.57 14.6123 125.745 15.5419 124.728 15.5419Z" fill="var(--fill-0, #8899A8)" id="Vector_14"/>
</g>
</g>
<defs>
<clipPath id="clip0_0_100">
<rect fill="white" height="26" width="135"/>
</clipPath>
</defs>
</svg>